<svg version="1.2" xmlns="http://www.w3.org/2000/svg" viewBox="0 0 69 69" width="69" height="69"><style>.a{fill:#fff}</style><path class="a" d="m52.5 10.4l6.1 6.1-25.6 26.6h-7.1v-7.1l26.6-25.6m0-10.4c-1.1 0-2.2 0.4-3 1.3l-32.3 31v19.4h19.4l31.1-32.2c1.7-1.7 1.7-4.4 0-6.1l-12.1-12.1c-0.9-0.9-2-1.3-3.1-1.3zm7.9 47.4c0-2.3 1.9-4.3 4.3-4.3 2.3 0 4.3 2 4.3 4.3v17.3c0 2.4-2 4.3-4.3 4.3h-60.4c-2.4 0-4.3-1.9-4.3-4.3v-60.4c0-2.4 1.9-4.3 4.3-4.3h17.3c2.3 0 4.3 1.9 4.3 4.3 0 2.4-2 4.3-4.3 4.3h-10.8c-1.2 0-2.2 1-2.2 2.2v47.4c0 1.2 1 2.2 2.2 2.2h47.4c1.2 0 2.2-1 2.2-2.2z"/></svg>